# xmcd
#
# Track frame offsets: 
#        150
#        13958
#        28711
#        42514
#        55438
#        71391
#        88988
#        104681
#        122577
#        136893
#        152151
#        171325
#
# Disc length: 2497 seconds
#
# Revision: 0
# Processed by: cddbd v1.5.2PL0 Copyright (c) Steve Scherf et al.
# Submitted via: ExactAudioCopy v0.95b3
#
DISCID=ad09bf0c
DTITLE=Ginny Mac - Wishing River
DYEAR=2005
DGENRE=Country
TTITLE0=Don't Be Angry
TTITLE1=All The Man I Need (Right Now)
TTITLE2=My Damn Tears
TTITLE3=Guess Who's Back In Town
TTITLE4=Echoes Of My Mind
TTITLE5=Sweet Kind Of Love
TTITLE6=Hooked On Lovin' You
TTITLE7=Wishing River
TTITLE8=They Don't Call Me Darlin'
TTITLE9=After The Storm
TTITLE10=Tender Man
TTITLE11=Beyond These Things
EXTD=
EXTT0=
EXTT1=
EXTT2=
EXTT3=
EXTT4=
EXTT5=
EXTT6=
EXTT7=
EXTT8=
EXTT9=
EXTT10=
EXTT11=
PLAYORDER=
